<svg xmlns="http://www.w3.org/2000/svg" viewBox="0 0 900 230" role="img" aria-label="Ab major scale">
  <rect width="900" height="230" rx="12" fill="#fffdf9" />
  <line x1="42" y1="48" x2="858" y2="48" stroke="#574b43" stroke-width="2" />
  <line x1="42" y1="64" x2="858" y2="64" stroke="#574b43" stroke-width="2" />
  <line x1="42" y1="80" x2="858" y2="80" stroke="#574b43" stroke-width="2" />
  <line x1="42" y1="96" x2="858" y2="96" stroke="#574b43" stroke-width="2" />
  <line x1="42" y1="112" x2="858" y2="112" stroke="#574b43" stroke-width="2" />
  <text x="43" y="118" font-family="Georgia, serif" font-size="91" fill="#2f2925">𝄞</text>
  <text x="98" y="90" font-family="Georgia, serif" font-size="31" font-weight="700">♭</text><text x="117" y="66" font-family="Georgia, serif" font-size="31" font-weight="700">♭</text><text x="136" y="98" font-family="Georgia, serif" font-size="31" font-weight="700">♭</text><text x="155" y="74" font-family="Georgia, serif" font-size="31" font-weight="700">♭</text>
  <ellipse cx="220" cy="88" rx="12" ry="8" fill="#2f2925" transform="rotate(-17 220 88)" /><line x1="230" y1="86" x2="230" y2="46" stroke="#2f2925" stroke-width="3" /><text x="220" y="188" text-anchor="middle" font-family="Arial, sans-serif" font-size="18" font-weight="700" fill="#5f4b3d">Ab</text><ellipse cx="305.7142857142857" cy="80" rx="12" ry="8" fill="#2f2925" transform="rotate(-17 305.7142857142857 80)" /><line x1="315.7142857142857" y1="78" x2="315.7142857142857" y2="38" stroke="#2f2925" stroke-width="3" /><text x="305.7142857142857" y="188" text-anchor="middle" font-family="Arial, sans-serif" font-size="18" font-weight="700" fill="#5f4b3d">Bb</text><ellipse cx="391.42857142857144" cy="72" rx="12" ry="8" fill="#2f2925" transform="rotate(-17 391.42857142857144 72)" /><line x1="381.42857142857144" y1="74" x2="381.42857142857144" y2="114" stroke="#2f2925" stroke-width="3" /><text x="391.42857142857144" y="188" text-anchor="middle" font-family="Arial, sans-serif" font-size="18" font-weight="700" fill="#5f4b3d">C</text><ellipse cx="477.1428571428571" cy="64" rx="12" ry="8" fill="#2f2925" transform="rotate(-17 477.1428571428571 64)" /><line x1="467.1428571428571" y1="66" x2="467.1428571428571" y2="106" stroke="#2f2925" stroke-width="3" /><text x="477.1428571428571" y="188" text-anchor="middle" font-family="Arial, sans-serif" font-size="18" font-weight="700" fill="#5f4b3d">Db</text><ellipse cx="562.8571428571429" cy="56" rx="12" ry="8" fill="#2f2925" transform="rotate(-17 562.8571428571429 56)" /><line x1="552.8571428571429" y1="58" x2="552.8571428571429" y2="98" stroke="#2f2925" stroke-width="3" /><text x="562.8571428571429" y="188" text-anchor="middle" font-family="Arial, sans-serif" font-size="18" font-weight="700" fill="#5f4b3d">Eb</text><ellipse cx="648.5714285714286" cy="48" rx="12" ry="8" fill="#2f2925" transform="rotate(-17 648.5714285714286 48)" /><line x1="638.5714285714286" y1="50" x2="638.5714285714286" y2="90" stroke="#2f2925" stroke-width="3" /><text x="648.5714285714286" y="188" text-anchor="middle" font-family="Arial, sans-serif" font-size="18" font-weight="700" fill="#5f4b3d">F</text><ellipse cx="734.2857142857142" cy="40" rx="12" ry="8" fill="#2f2925" transform="rotate(-17 734.2857142857142 40)" /><line x1="724.2857142857142" y1="42" x2="724.2857142857142" y2="82" stroke="#2f2925" stroke-width="3" /><text x="734.2857142857142" y="188" text-anchor="middle" font-family="Arial, sans-serif" font-size="18" font-weight="700" fill="#5f4b3d">G</text><line x1="802" y1="32" x2="838" y2="32" stroke="#2f2925" stroke-width="2" /><ellipse cx="820" cy="32" rx="12" ry="8" fill="#2f2925" transform="rotate(-17 820 32)" /><line x1="810" y1="34" x2="810" y2="74" stroke="#2f2925" stroke-width="3" /><text x="820" y="188" text-anchor="middle" font-family="Arial, sans-serif" font-size="18" font-weight="700" fill="#5f4b3d">Ab</text>
  <text x="450" y="218" text-anchor="middle" font-family="Arial, sans-serif" font-size="15" font-weight="700" fill="#8a7567">Ab MAJOR SCALE</text>
</svg>
