<svg xmlns="http://www.w3.org/2000/svg" viewBox="0 0 900 230" role="img" aria-label="B major scale">
  <rect width="900" height="230" rx="12" fill="#fffdf9" />
  <line x1="42" y1="48" x2="858" y2="48" stroke="#574b43" stroke-width="2" />
  <line x1="42" y1="64" x2="858" y2="64" stroke="#574b43" stroke-width="2" />
  <line x1="42" y1="80" x2="858" y2="80" stroke="#574b43" stroke-width="2" />
  <line x1="42" y1="96" x2="858" y2="96" stroke="#574b43" stroke-width="2" />
  <line x1="42" y1="112" x2="858" y2="112" stroke="#574b43" stroke-width="2" />
  <text x="43" y="118" font-family="Georgia, serif" font-size="91" fill="#2f2925">𝄞</text>
  <text x="98" y="58" font-family="Georgia, serif" font-size="31" font-weight="700">♯</text><text x="117" y="82" font-family="Georgia, serif" font-size="31" font-weight="700">♯</text><text x="136" y="50" font-family="Georgia, serif" font-size="31" font-weight="700">♯</text><text x="155" y="74" font-family="Georgia, serif" font-size="31" font-weight="700">♯</text><text x="174" y="98" font-family="Georgia, serif" font-size="31" font-weight="700">♯</text>
  <ellipse cx="235" cy="80" rx="12" ry="8" fill="#2f2925" transform="rotate(-17 235 80)" /><line x1="245" y1="78" x2="245" y2="38" stroke="#2f2925" stroke-width="3" /><text x="235" y="188" text-anchor="middle" font-family="Arial, sans-serif" font-size="18" font-weight="700" fill="#5f4b3d">B</text><ellipse cx="318.57142857142856" cy="72" rx="12" ry="8" fill="#2f2925" transform="rotate(-17 318.57142857142856 72)" /><line x1="308.57142857142856" y1="74" x2="308.57142857142856" y2="114" stroke="#2f2925" stroke-width="3" /><text x="318.57142857142856" y="188" text-anchor="middle" font-family="Arial, sans-serif" font-size="18" font-weight="700" fill="#5f4b3d">C#</text><ellipse cx="402.1428571428571" cy="64" rx="12" ry="8" fill="#2f2925" transform="rotate(-17 402.1428571428571 64)" /><line x1="392.1428571428571" y1="66" x2="392.1428571428571" y2="106" stroke="#2f2925" stroke-width="3" /><text x="402.1428571428571" y="188" text-anchor="middle" font-family="Arial, sans-serif" font-size="18" font-weight="700" fill="#5f4b3d">D#</text><ellipse cx="485.7142857142857" cy="56" rx="12" ry="8" fill="#2f2925" transform="rotate(-17 485.7142857142857 56)" /><line x1="475.7142857142857" y1="58" x2="475.7142857142857" y2="98" stroke="#2f2925" stroke-width="3" /><text x="485.7142857142857" y="188" text-anchor="middle" font-family="Arial, sans-serif" font-size="18" font-weight="700" fill="#5f4b3d">E</text><ellipse cx="569.2857142857142" cy="48" rx="12" ry="8" fill="#2f2925" transform="rotate(-17 569.2857142857142 48)" /><line x1="559.2857142857142" y1="50" x2="559.2857142857142" y2="90" stroke="#2f2925" stroke-width="3" /><text x="569.2857142857142" y="188" text-anchor="middle" font-family="Arial, sans-serif" font-size="18" font-weight="700" fill="#5f4b3d">F#</text><ellipse cx="652.8571428571429" cy="40" rx="12" ry="8" fill="#2f2925" transform="rotate(-17 652.8571428571429 40)" /><line x1="642.8571428571429" y1="42" x2="642.8571428571429" y2="82" stroke="#2f2925" stroke-width="3" /><text x="652.8571428571429" y="188" text-anchor="middle" font-family="Arial, sans-serif" font-size="18" font-weight="700" fill="#5f4b3d">G#</text><line x1="718.4285714285714" y1="32" x2="754.4285714285714" y2="32" stroke="#2f2925" stroke-width="2" /><ellipse cx="736.4285714285714" cy="32" rx="12" ry="8" fill="#2f2925" transform="rotate(-17 736.4285714285714 32)" /><line x1="726.4285714285714" y1="34" x2="726.4285714285714" y2="74" stroke="#2f2925" stroke-width="3" /><text x="736.4285714285714" y="188" text-anchor="middle" font-family="Arial, sans-serif" font-size="18" font-weight="700" fill="#5f4b3d">A#</text><line x1="802" y1="32" x2="838" y2="32" stroke="#2f2925" stroke-width="2" /><ellipse cx="820" cy="24" rx="12" ry="8" fill="#2f2925" transform="rotate(-17 820 24)" /><line x1="810" y1="26" x2="810" y2="66" stroke="#2f2925" stroke-width="3" /><text x="820" y="188" text-anchor="middle" font-family="Arial, sans-serif" font-size="18" font-weight="700" fill="#5f4b3d">B</text>
  <text x="450" y="218" text-anchor="middle" font-family="Arial, sans-serif" font-size="15" font-weight="700" fill="#8a7567">B MAJOR SCALE</text>
</svg>
